<svg xmlns="http://www.w3.org/2000/svg" width="158" height="22" fill="none"><path fill="#0F0D26" d="m100.497 21-.636-4.568L94.333 21h-7.02l17.132-14.213H91.043L92.578 1H113l-1.536 5.787-5.33 4.413 1.382 9.8zM87.248 1.022q1.075 0 1.799.754.746.733.746 1.774l-1.536 5.787h-6.69l-3.05 11.619H71.5l3.049-11.619h-6.713l1.536-5.787h6.69l.68-2.55h7.02l-.68 2.55h1.6q.023-1.065.746-1.796.747-.732 1.821-.732m.702 2.528a.64.64 0 0 0-.22-.488.65.65 0 0 0-.482-.2.76.76 0 0 0-.526.2.67.67 0 0 0-.198.488zM64.852 20.956l2.567-9.845h5.703l-2.567 9.845zm20.334 0h-5.703l2.566-9.845h5.704zM45.769 6.787 47.304 1h11.801L57.57 6.787zm-2.26 8.382 13.359-.023 3.268-11.929h7.02L62.33 20.911l-.022.045H41.974zM34.121 20.867h-7.02L30.24 9.625 23 11.222l1.535-5.787L44.783 1l-1.536 5.787-5.528 1.22z"/><path fill="#4A485F" d="M144.017 16.37v-1.174h5.505v-.39h-3.944v-1.09h3.944v-.39h-3.944v-1.174h3.944v-.39h-5.505v-1.215h5.505v-.391h-3.944V8.955h3.944V8.13h2.001v.824h3.789v1.592h1.617v1.214h-1.617v1.564h-3.789v.391h3.789v1.09h-3.789v.39H157v1.173zm1.745 4.58v-4.19h9.436v4.19zm2.114-1.174h5.265v-.432h-5.265zm0-1.41h5.265v-.433h-5.265zm3.647-6.214h1.916v-.39h-1.916zm0-1.605h1.916v-.391h-1.916zM133.829 21.047a9 9 0 0 0-.099-.67 7 7 0 0 0-.157-.768 3.3 3.3 0 0 0-.184-.6h1.078q.299 0 .426-.084.128-.084.128-.363V12.04h-5.35V10.17h5.35V8.257h2.1v1.913h1.646a14 14 0 0 0-.525-.6 5 5 0 0 0-.497-.503l1.533-1.02q.24.196.553.517.326.307.624.628.312.321.497.573a4 4 0 0 0-.326.181q-.17.113-.355.224h2.157v1.87h-5.307v1.16q.198.321.44.656.24.335.525.684.382-.335.766-.726.398-.405.738-.796.354-.405.596-.712l1.589 1.327q-.255.306-.653.712-.398.404-.851.824-.44.404-.852.754a17 17 0 0 0 1.661 1.354q.88.614 1.759 1.061a6.2 6.2 0 0 0-.823.824q-.383.476-.667.908-.738-.462-1.504-1.061a24 24 0 0 1-1.461-1.3q-.696-.698-1.263-1.395v3.113q0 .867-.511 1.243t-1.532.377zm-3.434-1.215-1.121-2.052q.496-.168 1.149-.461.654-.307 1.348-.67a25 25 0 0 0 1.348-.74q.654-.392 1.121-.74l.639 1.913q-.355.264-.908.628-.553.363-1.206.754-.639.39-1.263.754-.61.35-1.107.614m1.76-3.951a8 8 0 0 0-.511-.796 12 12 0 0 0-.625-.852 6 6 0 0 0-.638-.712l1.774-1.215q.453.433.964 1.09.511.656.866 1.284-.468.237-.965.572-.483.321-.865.629M124.45 20.922a4 4 0 0 0-.085-.587 7 7 0 0 0-.142-.656 2.5 2.5 0 0 0-.17-.53h.823q.269 0 .383-.07.127-.084.127-.336v-.111h-2.724v2.275h-1.844V14.22h6.427v5.222q0 .797-.44 1.131-.44.35-1.376.35zm-4.455-7.192v-1.354h2.951v-.419h-2.128v-1.229h2.128v-.377h-2.653V8.997h2.653v-.852h1.93v.852h2.767v1.354h-2.767v.377h2.426v1.229h-2.426v.419h3.15v1.354zm-4.513 6.996v-4.133h4.456v4.133zm-.482-8.63v-1.535h5.293v1.536zm.795-1.982V8.522h3.887v1.592zm-.015 5.99v-1.55h3.902v1.55zm0-1.997v-1.55h3.902v1.55zm6.882 3.45h2.724v-.475h-2.724zm0-1.55h2.724v-.475h-2.724zm-5.463 3.17h1.022v-1.034h-1.022z"/><path fill="#5B74FF" d="M0 6.27c0-1.867 0-2.8.363-3.513.32-.628.83-1.138 1.457-1.457C2.533.937 3.466.937 5.333.937h9.334c1.867 0 2.8 0 3.513.363.627.32 1.137.83 1.457 1.457C20 3.47 20 4.403 20 6.27v9.333c0 1.867 0 2.8-.363 3.514a3.33 3.33 0 0 1-1.457 1.456c-.713.364-1.646.364-3.513.364H5.333c-1.867 0-2.8 0-3.513-.364a3.33 3.33 0 0 1-1.457-1.456C0 18.404 0 17.47 0 15.603z"/><path fill="#fff" d="m15.085 5.183.065-.004.078.005.055.01.075.02.064.029.061.034.054.04.05.046.032.036.05.07.031.058q.043.091.055.192l.002.064q0 .068-.014.134l-.021.074-3.959 10.956a.94.94 0 0 1-1.66.094l-.039-.076-2.031-4.062L3.99 10.88a.94.94 0 0 1-.544-.763l-.004-.09c0-.34.183-.65.51-.83l.085-.043 10.92-3.943.064-.018z"/></svg>