<svg xmlns="http://www.w3.org/2000/svg" width="42" height="18" fill="none"><path fill="#635BFF" fill-rule="evenodd" d="M37.923 9.703c0-2.416-1.166-4.323-3.394-4.323-2.238 0-3.591 1.907-3.591 4.304 0 2.841 1.598 4.276 3.892 4.276 1.119 0 1.965-.255 2.604-.614v-1.888c-.64.321-1.372.52-2.303.52-.912 0-1.72-.321-1.824-1.435h4.597c0-.123.02-.614.02-.84m-4.644-.897c0-1.066.648-1.51 1.24-1.51.574 0 1.185.444 1.185 1.51zm-5.97-3.426c-.922 0-1.514.434-1.843.736l-.122-.585h-2.069v11.005l2.35-.5.01-2.671c.338.245.837.595 1.664.595 1.683 0 3.216-1.36 3.216-4.351-.01-2.738-1.561-4.229-3.206-4.229m-.565 6.503c-.554 0-.883-.198-1.109-.443l-.01-3.502c.245-.274.584-.462 1.12-.462.855 0 1.447.962 1.447 2.199 0 1.264-.583 2.208-1.448 2.208m-6.703-7.06 2.36-.51V2.399l-2.36.5zm0 .718h2.36v8.258h-2.36zm-2.529.698-.15-.698H15.33v8.258h2.35V8.202c.555-.726 1.495-.594 1.787-.49V5.54c-.301-.114-1.401-.321-1.956.698m-4.7-2.746-2.295.49-.01 7.56c0 1.397 1.044 2.426 2.436 2.426.77 0 1.335-.142 1.645-.311v-1.916c-.3.122-1.786.556-1.786-.84V7.55h1.786v-2.01h-1.786zM6.455 7.938c0-.368.3-.51.799-.51.714 0 1.617.217 2.331.604V5.814a6.2 6.2 0 0 0-2.331-.434c-1.909 0-3.178 1-3.178 2.671 0 2.605 3.573 2.19 3.573 3.313 0 .434-.376.576-.903.576-.78 0-1.777-.321-2.567-.755v2.246a6.5 6.5 0 0 0 2.567.538c1.956 0 3.3-.972 3.3-2.662-.01-2.812-3.591-2.312-3.591-3.369" clip-rule="evenodd"/></svg>